<svg width="110" height="110" viewBox="0 0 110 110" fill="none" xmlns="http://www.w3.org/2000/svg">
<g filter="url(#filter0_d)">
<path d="M29 47C29 37.0589 37.0589 29 47 29H63C72.9411 29 81 37.0589 81 47V63C81 72.9411 72.9411 81 63 81H47C37.0589 81 29 72.9411 29 63V47Z" fill="white"/>
</g>
<path d="M58.4139 52.4386C57.9897 52.0277 57.7169 51.48 57.6412 50.8876L57.2471 47.8046L54.577 49.2906C54.0637 49.5766 53.4696 49.673 52.8948 49.5636L49.9059 48.9936L50.4634 52.0496C50.5704 52.6372 50.4761 53.2447 50.1964 53.7696L48.743 56.4996L51.7583 56.9026C52.3374 56.9801 52.8727 57.2591 53.2743 57.6926L55.3653 59.9496L56.672 57.1426C56.9228 56.6031 57.3476 56.1684 57.875 55.9116L60.6213 54.5756L58.4139 52.4386ZM58.4383 58.0016L56.2739 62.6516C56.233 62.7395 56.1717 62.8159 56.0954 62.8742C56.0192 62.9325 55.9301 62.9709 55.8361 62.9862C55.742 63.0015 55.6457 62.9931 55.5555 62.9618C55.4653 62.9305 55.3839 62.8772 55.3184 62.8066L51.8542 59.0676C51.7616 58.9678 51.6384 58.9035 51.505 58.8856L46.5102 58.2176C46.4158 58.2049 46.3259 58.1689 46.2481 58.1127C46.1704 58.0565 46.1072 57.9819 46.064 57.8952C46.0208 57.8084 45.9988 57.7123 46 57.615C46.0013 57.5177 46.0256 57.4221 46.071 57.3366L48.479 52.8126C48.543 52.6916 48.5644 52.5518 48.5396 52.4166L47.6173 47.3536C47.5998 47.2577 47.6054 47.159 47.6336 47.0658C47.6618 46.9727 47.7118 46.888 47.7792 46.8191C47.8466 46.7502 47.9295 46.6991 48.0205 46.6702C48.1116 46.6414 48.2082 46.6357 48.3019 46.6536L53.2538 47.5966C53.386 47.6219 53.5227 47.6 53.6411 47.5346L58.0657 45.0726C58.1494 45.0261 58.243 45.0012 58.3382 45C58.4335 44.9988 58.5276 45.0214 58.6124 45.0657C58.6972 45.11 58.7702 45.1747 58.8251 45.2543C58.88 45.3339 58.9151 45.426 58.9274 45.5226L59.5807 50.6286C59.5983 50.7649 59.6611 50.8909 59.7587 50.9856L63.4156 54.5276C63.4847 54.5946 63.5368 54.6778 63.5674 54.77C63.598 54.8622 63.6062 54.9607 63.5913 55.0569C63.5764 55.153 63.5388 55.2441 63.4817 55.3221C63.4247 55.4001 63.35 55.4627 63.264 55.5046L58.7161 57.7176C58.5944 57.7768 58.4963 57.8771 58.4383 58.0016ZM59.2178 59.9286L60.6008 58.5146L64.7506 62.7566L63.3667 64.1716L59.2178 59.9286Z" fill="#FF7907"/>
<defs>
<filter id="filter0_d" x="0" y="0" width="110" height="110" filterUnits="userSpaceOnUse" color-interpolation-filters="sRGB">
<feFlood flood-opacity="0" result="BackgroundImageFix"/>
<feColorMatrix in="SourceAlpha" type="matrix" values="0 0 0 0 0 0 0 0 0 0 0 0 0 0 0 0 0 0 127 0"/>
<feOffset/>
<feGaussianBlur stdDeviation="14.5"/>
<feColorMatrix type="matrix" values="0 0 0 0 0.266667 0 0 0 0 0.345098 0 0 0 0 0.564706 0 0 0 0.12 0"/>
<feBlend mode="normal" in2="BackgroundImageFix" result="effect1_dropShadow"/>
<feBlend mode="normal" in="SourceGraphic" in2="effect1_dropShadow" result="shape"/>
</filter>
</defs>
</svg>
