<svg width="110" height="110" viewBox="0 0 110 110" fill="none" xmlns="http://www.w3.org/2000/svg">
<g filter="url(#filter0_d)">
<path d="M29 47C29 37.0589 37.0589 29 47 29H63C72.9411 29 81 37.0589 81 47V63C81 72.9411 72.9411 81 63 81H47C37.0589 81 29 72.9411 29 63V47Z" fill="white"/>
</g>
<path d="M55 56L61 65H49L55 56ZM55 59.6L52.74 63H57.26L55 59.6ZM53.94 53.56C53.7926 53.4226 53.6744 53.257 53.5925 53.073C53.5105 52.889 53.4664 52.6904 53.4628 52.489C53.4593 52.2876 53.4963 52.0875 53.5718 51.9008C53.6472 51.714 53.7595 51.5443 53.9019 51.4019C54.0444 51.2594 54.214 51.1472 54.4008 51.0717C54.5876 50.9963 54.7877 50.9592 54.9891 50.9628C55.1905 50.9663 55.3891 51.0104 55.5731 51.0924C55.7571 51.1744 55.9227 51.2926 56.06 51.44C56.325 51.7243 56.4692 52.1004 56.4624 52.489C56.4555 52.8776 56.2981 53.2484 56.0233 53.5232C55.7484 53.798 55.3777 53.9555 54.9891 53.9623C54.6005 53.9692 54.2244 53.8249 53.94 53.56ZM48.281 45.783L49.696 47.198C48.2897 48.6045 47.4996 50.512 47.4996 52.501C47.4996 54.4899 48.2897 56.3975 49.696 57.804L48.281 59.219C47.3987 58.3368 46.6988 57.2895 46.2213 56.1368C45.7438 54.9841 45.498 53.7486 45.498 52.501C45.498 51.2533 45.7438 50.0178 46.2213 48.8651C46.6988 47.7125 47.3987 46.6651 48.281 45.783ZM61.717 45.783C62.5993 46.6651 63.2992 47.7125 63.7767 48.8651C64.2542 50.0178 64.5 51.2533 64.5 52.501C64.5 53.7486 64.2542 54.9841 63.7767 56.1368C63.2992 57.2895 62.5993 58.3368 61.717 59.219L60.302 57.804C61.7084 56.3975 62.4984 54.4899 62.4984 52.501C62.4984 50.512 61.7084 48.6045 60.302 47.198L61.717 45.783ZM51.11 48.611L52.524 50.025C52.199 50.35 51.9411 50.7358 51.7652 51.1605C51.5893 51.5851 51.4988 52.0403 51.4988 52.5C51.4988 52.9596 51.5893 53.4148 51.7652 53.8394C51.9411 54.2641 52.199 54.65 52.524 54.975L51.11 56.389C50.0786 55.3575 49.4992 53.9586 49.4992 52.5C49.4992 51.0413 50.0786 49.6424 51.11 48.611ZM58.888 48.611C59.9194 49.6424 60.4988 51.0413 60.4988 52.5C60.4988 53.9586 59.9194 55.3575 58.888 56.389L57.474 54.975C57.7991 54.65 58.0569 54.2641 58.2328 53.8394C58.4087 53.4148 58.4993 52.9596 58.4993 52.5C58.4993 52.0403 58.4087 51.5851 58.2328 51.1605C58.0569 50.7358 57.7991 50.35 57.474 50.025L58.888 48.611Z" fill="#76A728"/>
<defs>
<filter id="filter0_d" x="0" y="0" width="110" height="110" filterUnits="userSpaceOnUse" color-interpolation-filters="sRGB">
<feFlood flood-opacity="0" result="BackgroundImageFix"/>
<feColorMatrix in="SourceAlpha" type="matrix" values="0 0 0 0 0 0 0 0 0 0 0 0 0 0 0 0 0 0 127 0"/>
<feOffset/>
<feGaussianBlur stdDeviation="14.5"/>
<feColorMatrix type="matrix" values="0 0 0 0 0.266667 0 0 0 0 0.345098 0 0 0 0 0.564706 0 0 0 0.12 0"/>
<feBlend mode="normal" in2="BackgroundImageFix" result="effect1_dropShadow"/>
<feBlend mode="normal" in="SourceGraphic" in2="effect1_dropShadow" result="shape"/>
</filter>
</defs>
</svg>
