<svg width="110" height="110" viewBox="0 0 110 110" fill="none" xmlns="http://www.w3.org/2000/svg">
<g filter="url(#filter0_d)">
<path d="M29 47C29 37.0589 37.0589 29 47 29H63C72.9411 29 81 37.0589 81 47V63C81 72.9411 72.9411 81 63 81H47C37.0589 81 29 72.9411 29 63V47Z" fill="white"/>
</g>
<path d="M48.5904 47.257L56.1633 55L54.7804 56.414L51.4101 52.968C50.9771 53.7185 50.7957 54.5931 50.8934 55.4587C50.9911 56.3243 51.3626 57.1336 51.9514 57.7636C52.5402 58.3935 53.314 58.8097 54.1553 58.9488C54.9966 59.0879 55.8593 58.9423 56.6122 58.5341C57.3652 58.126 57.9672 57.4776 58.3267 56.6876C58.6863 55.8976 58.7837 55.0092 58.6041 54.1574C58.4246 53.3056 57.9779 52.537 57.332 51.9686C56.6862 51.4001 55.8764 51.0628 55.0259 51.008L53.2605 49.203C54.5948 48.8372 56.0125 48.9643 57.2641 49.5621C58.5157 50.1599 59.5209 51.19 60.1028 52.4711C60.6846 53.7521 60.8058 55.202 60.445 56.5654C60.0842 57.9288 59.2645 59.1184 58.1302 59.9246C56.996 60.7309 55.6199 61.1022 54.2443 60.9731C52.8686 60.8441 51.5816 60.223 50.6098 59.2191C49.638 58.2153 49.0437 56.8931 48.9316 55.4853C48.8195 54.0775 49.1967 52.6744 49.9968 51.523L48.5992 50.094C47.4329 51.6314 46.8545 53.5506 46.9723 55.4925C47.09 57.4344 47.8959 59.2659 49.2391 60.6441C50.5823 62.0223 52.3707 62.8528 54.2695 62.9802C56.1683 63.1075 58.0475 62.5229 59.5552 61.3359C61.0629 60.1488 62.0959 58.4407 62.4607 56.5311C62.8255 54.6216 62.4973 52.6415 61.5373 50.9616C60.5773 49.2817 59.0515 48.017 57.2454 47.4043C55.4393 46.7916 53.4767 46.8729 51.725 47.633L50.256 46.132C51.6524 45.386 53.2049 44.9976 54.7804 45C60.1821 45 64.5608 49.477 64.5608 55C64.5608 60.523 60.1821 65 54.7804 65C49.3787 65 45 60.523 45 55C44.9985 53.5178 45.32 52.0538 45.941 50.7145C46.5621 49.3751 47.4671 48.194 48.5904 47.257V47.257Z" fill="#353AE0"/>
<defs>
<filter id="filter0_d" x="0" y="0" width="110" height="110" filterUnits="userSpaceOnUse" color-interpolation-filters="sRGB">
<feFlood flood-opacity="0" result="BackgroundImageFix"/>
<feColorMatrix in="SourceAlpha" type="matrix" values="0 0 0 0 0 0 0 0 0 0 0 0 0 0 0 0 0 0 127 0"/>
<feOffset/>
<feGaussianBlur stdDeviation="14.5"/>
<feColorMatrix type="matrix" values="0 0 0 0 0.266667 0 0 0 0 0.345098 0 0 0 0 0.564706 0 0 0 0.12 0"/>
<feBlend mode="normal" in2="BackgroundImageFix" result="effect1_dropShadow"/>
<feBlend mode="normal" in="SourceGraphic" in2="effect1_dropShadow" result="shape"/>
</filter>
</defs>
</svg>
